# xmcd
#
# Track frame offsets:
#	254
#	21605
#	37155
#	56520
#	68486
#	90086
#	103305
#	128491
#	149724
#	177688
#	191457
#	209885
#	241659
#
# Disc length: 3468 seconds
# Revision: 0
# Processed by: cddbd v1.5.2PL0 Copyright (c) Steve Scherf et al.
# Submitted via: dBpowerAMP V12.0
#
DISCID=c30d890d
DTITLE=HeavyDrunk - Holywater
DYEAR=2019
DGENRE=Blues
TTITLE0=If I Loved You Hard Enough
TTITLE1=Walking to the Mission in the Rain
TTITLE2=HeavyDrunk Holywater
TTITLE3=One Dancin' Fool
TTITLE4=I Can't Be Satisfied
TTITLE5=Keepin' Up With the Kid
TTITLE6=High on Love
TTITLE7=Memphis
TTITLE8=Somebody's Got to Take Them Panties Off
TTITLE9=Pick You Up Along the Way
TTITLE10=Slave
TTITLE11=Midnight in Harlem
TTITLE12=Shine On
EXTD=
EXTT0=
EXTT1=
EXTT2=
EXTT3=
EXTT4=
EXTT5=
EXTT6=
EXTT7=
EXTT8=
EXTT9=
EXTT10=
EXTT11=
EXTT12=
PLAYORDER=
